<?xml version="1.0" encoding="UTF-8"?>
<svg width="414px" height="122px" viewBox="0 0 414 122" version="1.1" xmlns="http://www.w3.org/2000/svg" xmlns:xlink="http://www.w3.org/1999/xlink">
    <g id="Page-1" stroke="none" stroke-width="1" fill="none" fill-rule="evenodd">
        <g id="mostaql_1_" transform="translate(0.059437, 0.195000)" fill="#FFFFFF" fill-rule="nonzero">
            <g id="Ar" transform="translate(0.000000, 0.000000)">
                <circle id="Oval" cx="123.491563" cy="12.573" r="12.573"></circle>
                <circle id="Oval" cx="153.090563" cy="12.573" r="12.573"></circle>
                <circle id="Oval" cx="196.606563" cy="37.67" r="12.573"></circle>
                <circle id="Oval" cx="226.205563" cy="37.67" r="12.573"></circle>
                <path d="M374.709563,42.623 C353.083563,42.623 335.491563,60.215 335.491563,81.841 C335.491563,84.257 335.722563,86.618 336.142563,88.915 C330.741563,88.916 324.037563,88.916 316.490563,88.917 L321.137563,58.675 C321.982563,53.136 318.177563,47.96 312.638563,47.114 C307.110563,46.291 301.923563,50.074 301.077563,55.613 L295.960563,88.92 C293.044563,88.92 290.080563,88.921 287.077563,88.921 L291.057563,63.174 C291.902563,57.635 288.097563,52.459 282.558563,51.613 C277.026563,50.79 271.843563,54.573 270.997563,60.112 L266.543563,88.924 C263.622563,88.924 260.707563,88.925 257.809563,88.925 L260.602563,70.621 C261.447563,65.082 257.641563,59.906 252.103563,59.06 C246.571563,58.237 241.388563,62.02 240.542563,67.559 L237.281563,88.928 C230.973563,88.929 224.968563,88.93 219.444563,88.931 L222.238563,70.621 C223.083563,65.082 219.277563,59.906 213.739563,59.06 C208.207563,58.237 203.024563,62.02 202.178563,67.559 L198.919563,88.918 L169.379563,88.918 C172.732563,83.35 174.665563,76.835 174.665563,69.876 C174.665563,49.46 158.056563,32.851 137.640563,32.851 C117.224563,32.851 100.615563,49.46 100.615563,69.876 C100.615563,76.836 102.548563,83.351 105.901563,88.918 L79.4215629,88.918 C79.8435629,86.534 80.0655629,84.072 80.0675629,81.531 C80.0685629,79.278 80.0675629,77.026 80.0665629,74.773 C80.0665629,74.764 80.0675629,74.756 80.0675629,74.748 L80.2625629,10.031 C80.2625629,4.493 75.7725629,0.002 70.2335629,0.002 C64.6945629,0.002 60.2045629,4.493 60.2045629,10.031 L60.2065629,17.446 L60.2065629,17.446 C60.2065629,17.504 60.2065629,17.561 60.2065629,17.619 L60.2215629,74.997 C60.2155629,77.163 60.2085629,79.346 60.2005629,81.568 C60.1515629,94.82 46.2775629,104.007 33.7985629,100.477 C24.7625629,97.92 18.8175629,89.3 19.6565629,79.97 C20.5195629,70.376 28.0635629,63.175 38.0915629,62.374 C45.1465629,61.81 49.3255629,57.65 48.8835629,51.63 C48.4505629,45.736 43.5125629,42.107 36.5525629,42.568 C19.0615629,43.726 4.67256288,56.212 0.96456288,73.103 C-2.83943712,90.435 4.81256288,107.882 20.3085629,116.289 C35.6835629,124.63 56.3755629,121.846 68.6935629,109.424 L346.880563,109.424 C353.991563,116.598 363.833563,121.061 374.709563,121.061 C396.333563,121.061 413.925563,103.469 413.925563,81.843 C413.925563,60.217 396.333563,42.623 374.709563,42.623 Z M137.638563,52.005 C147.491563,52.005 155.507563,60.02 155.507563,69.874 C155.507563,79.728 147.491563,87.743 137.638563,87.743 C127.785563,87.743 119.769563,79.728 119.769563,69.874 C119.770563,60.02 127.786563,52.005 137.638563,52.005 Z M374.709563,100.768 C364.272563,100.768 355.782563,92.278 355.782563,81.841 C355.782563,71.404 364.272563,62.914 374.709563,62.914 C385.144563,62.914 393.634563,71.404 393.634563,81.841 C393.634563,92.278 385.144563,100.768 374.709563,100.768 Z" id="Shape"></path>
            </g>
        </g>
    </g>
</svg>